<svg width="54" height="28" viewBox="0 0 54 28" fill="none" xmlns="http://www.w3.org/2000/svg">
<path d="M50.7894 24.9688L46.0082 24.1877V23.5629L50.6327 23.4067L50.5543 22.235H44.6757L44.3622 25.2031L49.2218 26.0623V26.6091L44.127 26.8434L43.9703 27.9369H51.103L50.7894 24.9688ZM5.01465 24.5002L4.93627 25.5937L6.66066 25.6718V26.7653L2.97673 26.6872L3.13349 23.4848L8.14991 23.4067L8.07153 22.235H1.56586L1.01719 27.9369H8.38505L8.22829 24.4221L5.01465 24.5002ZM36.2889 26.6091V25.5937L39.7377 25.5156V24.4221L36.2105 24.344V23.3285L40.835 23.2504V22.0788H34.5645L34.4077 27.9369H40.9918L40.9134 26.7653L36.2889 26.6091ZM31.2725 27.9369L30.6454 22.1569H28.9994L26.5696 24.8907L24.1397 22.1569H22.4937L21.9451 27.9369H23.9046L24.0614 24.1877L26.5696 26.7653L29.0778 24.1877L29.2345 27.9369H31.2725ZM22.964 0.989563H19.0449L18.7314 18.8764H23.4343L22.964 0.989563ZM38.9538 0.989563H26.7263L26.256 18.8764H39.816L38.9538 0.989563ZM35.1915 14.971L30.8805 15.1272L30.6454 4.58255L35.1915 4.73876V14.971ZM53.6112 4.89498L53.1409 0.989563H41.0701L41.2269 4.42633L45.0676 4.58255L45.4595 18.8764H50.2408L48.8299 4.73876L53.6112 4.89498ZM11.3635 18.8764H16.5367L13.1663 10.8312L15.8313 9.34715L14.0285 0.989563H0.860429L0.390137 4.89498L3.36864 4.81687L1.95777 18.9545H6.58228L6.73904 14.4242L10.0311 12.6277L11.3635 18.8764ZM6.97419 4.58255L10.7365 4.50444L11.2068 8.09742L6.81742 10.1282L6.97419 4.58255ZM17.1638 27.9369H19.1233L17.5557 22.1569H12.8528L11.2852 27.9369H13.2447L13.5582 26.4529L16.7719 26.531L17.1638 27.9369ZM13.8718 25.3594L14.2637 23.4848L16.1448 23.4067L16.5367 25.2813L13.8718 25.3594Z" fill="white"/>
</svg>
